<?xml version="1.0" encoding="UTF-8"?>
<svg width="228px" height="228px" viewBox="0 0 228 228" version="1.1" xmlns="http://www.w3.org/2000/svg" xmlns:xlink="http://www.w3.org/1999/xlink">
    <title>Artboard</title>
    <g id="Artboard" stroke="none" stroke-width="1" fill="none" fill-rule="evenodd">
        <g id="np_signed_1745292_FF5D55" transform="translate(35.500000, 41.000000) scale(-1, 1) translate(-35.500000, -41.000000) translate(11.000000, 11.000000)" fill="#FF5D55" fill-rule="nonzero">
            <path d="M48.9874883,57.6124184 L45.8368985,35.6799535 L45.8368985,35.6663096 L45.8334845,35.6697212 C45.8027642,35.4445984 45.7242559,35.2262954 45.6082027,35.0318661 L25.3974163,0.853476534 C25.1618932,0.457806728 24.7795931,0.171279686 24.3323938,0.0553084052 C23.8886548,-0.0606628759 23.4141744,0.00755506248 23.0182426,0.242909264 L8.45326414,8.84203873 C8.05731483,9.07739555 7.77058539,9.45942579 7.65453218,9.90630948 C7.53847898,10.3531495 7.60674511,10.8238806 7.84226556,11.2229385 L28.0530519,45.3978352 C28.1691051,45.5956701 28.3227068,45.7662258 28.5036155,45.9026652 L28.5172691,45.9163083 L42.5841652,56.5074962 L20.0970548,56.5074962 C16.8816269,56.5074962 14.3352024,55.9242168 12.5841369,54.8190535 C16.2910934,52.5746368 20.0765198,49.5286115 20.7660581,46.1790577 L20.7660581,46.1824685 C21.1654241,44.1665714 20.4656795,42.0926929 18.9296195,40.7282992 C17.0556936,38.7294297 14.0211483,38.3473995 11.7069001,39.8209447 C7.573253,42.5531376 5.56283507,47.5604843 6.65852901,52.3934506 C6.78824015,52.8743983 6.95890766,53.3485698 7.16712358,53.8022034 C5.94516139,54.4093564 2.13920004,55.8112895 1.10152833,56.227375 L1.09811516,56.227375 C0.203838763,56.5855316 -0.233075638,57.6019853 0.125281554,58.4991233 C0.483691175,59.3927684 1.50086285,59.8293744 2.39863457,59.4712702 C2.87309739,59.280255 7.16030248,57.7248462 9.24246175,56.6674739 C11.2119845,58.4923122 14.5230092,60 20.1006584,60 L47.1893513,60 L47.1859382,60 C48.1348288,60 48.9063323,59.2427593 48.9301878,58.2979352 C48.9950425,58.076218 49.0155233,57.8408612 48.9882162,57.6123241 L48.9874883,57.6124184 Z M10.0339479,51.4897181 C9.16011911,48.2356064 11.1569927,44.1697568 13.4542012,42.8463168 L13.4542012,42.8429051 C13.8672252,42.583666 14.3450697,42.4370013 14.8331905,42.423353 C15.4578382,42.4472301 16.0449289,42.7303394 16.4579877,43.1976475 C17.161149,43.7331709 17.5024753,44.6132114 17.3420403,45.4796123 C16.9017093,47.6182831 13.7511283,50.0947122 10.2524051,52.1412591 L10.2558192,52.1412591 C10.1670731,51.9263704 10.0953929,51.7114729 10.0339453,51.4897644 L10.0339479,51.4897181 Z M23.2881832,4.11796899 L41.8194706,35.4479411 C40.4302576,36.6758518 39.3550112,38.2210876 38.6928238,39.9503966 L19.0010917,6.64871191 L23.2881832,4.11796899 Z M11.7169422,10.950154 L16.0076164,8.41583096 L35.6687644,41.6590105 C33.842637,41.4782294 31.9959746,41.6999432 30.2653566,42.3105052 L11.7169422,10.950154 Z M33.2725511,45.1451346 C35.1158056,44.9063635 36.9829156,45.2611059 38.6111208,46.1513368 C39.1470225,46.4412693 39.7955957,46.4310353 40.3212037,46.1240489 C40.8468642,45.8136482 41.1711421,45.2508369 41.1779667,44.6436926 C41.2701294,42.7949283 41.8538208,41.0007396 42.867602,39.4521855 L43.9496642,46.9904498 L39.3416154,49.7158317 L33.2725511,45.1451346 Z M44.482027,50.7118609 L44.9462485,53.9386411 L42.3418018,51.9773197 L44.482027,50.7118609 Z" id="Shape"></path>
        </g>
    </g>
</svg>