<?xml version="1.0" encoding="UTF-8"?>
<svg width="16px" height="16px" viewBox="0 0 16 16" version="1.1" xmlns="http://www.w3.org/2000/svg" xmlns:xlink="http://www.w3.org/1999/xlink">
    <title>Pen</title>
    <g id="Pen" stroke="none" stroke-width="1" fill="none" fill-rule="evenodd">
        <g id="np_pen_3557574_000000" transform="translate(-0.000000, -0.000000)" fill="#000000" fill-rule="nonzero">
            <path d="M12.1364962,1.7549648e-05 C11.1114801,-0.00308085017 10.1281707,0.404204193 9.40528877,1.13025748 L1.09379955,9.44279034 C0.390677646,10.1417503 -0.00308342235,11.0917502 1.81852595e-05,12.0823635 L1.81852595e-05,15.9999818 L3.91764722,15.9999818 C4.90826324,16.0030884 5.85826582,15.60935 6.55722771,14.9062034 L14.8697836,6.59473717 C15.5937322,5.86972388 16,4.88745727 16,3.86247066 C15.9989584,2.83852405 15.5916789,1.85623078 14.8677036,1.13127082 C14.1426883,0.407324193 13.160419,1.7549648e-05 12.1364962,1.7549648e-05 L12.1364962,1.7549648e-05 Z M5.42394464,13.7760434 C5.02394355,14.1750034 4.48228875,14.3999901 3.91770055,14.3999901 L1.59998759,14.3999901 L1.59998759,12.0822835 C1.59998759,11.5166569 1.82394554,10.9739636 2.22393595,10.5728969 L8.50101965,4.29903064 L11.7010283,7.49903045 L5.42394464,13.7760434 Z M13.7365005,5.46351057 L12.8323381,6.36767052 L9.63232939,3.1676707 L10.5364918,2.26351075 C10.9552396,1.81559078 11.5385746,1.55727079 12.1521229,1.54684413 C12.7646312,1.53642759 13.3562862,1.77601211 13.7906607,2.20935076 C14.2239952,2.64372406 14.4635692,3.23540403 14.4531691,3.84788399 C14.4427523,4.46143063 14.1844217,5.04476393 13.7365005,5.46351057 L13.7365005,5.46351057 Z" id="Shape"></path>
        </g>
    </g>
</svg>